<svg xmlns="http://www.w3.org/2000/svg" xmlns:xlink="http://www.w3.org/1999/xlink">
    <defs>
        <symbol id="icon-heart" viewBox="0 0 32 32">
            <path d="M2.133 11.738c0 5.833 4.919 11.598 12.565 16.516 0.425 0.273 0.946 0.546 1.302 0.546s0.877-0.273 1.302-0.546c7.66-4.918 12.565-10.683 12.565-16.516 0-5.041-3.494-8.538-7.975-8.538-2.617 0-4.659 1.188-5.892 2.992-1.206-1.79-3.261-2.992-5.878-2.992-4.494 0-7.988 3.497-7.988 8.538zM4.956 11.724c0-3.442 2.275-5.778 5.33-5.778 2.466 0 3.85 1.489 4.714 2.787 0.384 0.56 0.644 0.738 1 0.738 0.37 0 0.603-0.191 1-0.738 0.932-1.27 2.261-2.787 4.714-2.787 3.069 0 5.344 2.336 5.344 5.778 0 4.809-5.015 10.136-10.797 13.961-0.123 0.082-0.206 0.137-0.26 0.137s-0.137-0.055-0.247-0.137c-5.782-3.825-10.797-9.153-10.797-13.961z"></path>
        </symbol>
        <symbol id="icon-cart" viewBox="0 0 32 32">
            <path d="M11.566 22.355h14.959c0.604 0 1.157-0.475 1.157-1.156 0-0.668-0.553-1.143-1.157-1.143h-14.664c-0.617 0-1.002-0.424-1.092-1.078l-0.193-1.335h16.051c1.966 0 3.007-1.194 3.29-3.146l0.964-6.432c0.026-0.167 0.051-0.385 0.051-0.526 0-0.757-0.527-1.271-1.414-1.271h-20.601l-0.193-1.387c-0.167-1.117-0.617-1.682-2.043-1.682h-4.408c-0.643 0-1.208 0.565-1.208 1.22 0 0.668 0.565 1.232 1.208 1.232h4.022l1.992 13.583c0.283 1.939 1.311 3.12 3.277 3.12zM28.26 8.566l-0.81 5.7c-0.103 0.655-0.45 1.066-1.079 1.066l-16.128 0.013-0.99-6.779h19.007zM12.62 28.8c1.247 0 2.249-1.001 2.249-2.247s-1.002-2.247-2.249-2.247c-1.247 0-2.249 1.001-2.249 2.247s1.002 2.247 2.249 2.247zM24.495 28.8c1.247 0 2.236-1.001 2.236-2.247s-0.99-2.247-2.236-2.247c-1.247 0-2.262 1.001-2.262 2.247s1.015 2.247 2.262 2.247z"></path>
        </symbol>
        <symbol id="icon-trash" viewBox="0 0 32 32">
            <path stroke-linejoin="round" stroke-linecap="round" stroke-miterlimit="4" stroke-width="2.1333" d="M4 8h24"></path>
            <path stroke-linejoin="round" stroke-linecap="round" stroke-miterlimit="4" stroke-width="2.1333" d="M25.333 8v18.667c0 0.707-0.281 1.386-0.781 1.886s-1.178 0.781-1.886 0.781h-13.333c-0.707 0-1.386-0.281-1.886-0.781s-0.781-1.178-0.781-1.886v-18.667M10.667 8v-2.667c0-0.707 0.281-1.386 0.781-1.886s1.178-0.781 1.886-0.781h5.333c0.707 0 1.386 0.281 1.886 0.781s0.781 1.178 0.781 1.886v2.667"></path>
            <path stroke-linejoin="round" stroke-linecap="round" stroke-miterlimit="4" stroke-width="2.1333" d="M13.333 14.667v8"></path>
            <path stroke-linejoin="round" stroke-linecap="round" stroke-miterlimit="4" stroke-width="2.1333" d="M18.667 14.667v8"></path>
        </symbol>
        <symbol id="icon-checkmark" viewBox="0 0 32 32">
            <path d="M27 4l-15 15-7-7-5 5 12 12 20-20z"></path>
        </symbol>
        <symbol id="icon-warning" viewBox="0 0 32 32">
            <path fill="none" stroke="#f1e83d" style="stroke: var(--color1, #f1e83d)" stroke-linejoin="round" stroke-linecap="round" stroke-miterlimit="4" stroke-width="3.2" d="M16 9.6v6.4M16 22.4h0.016M1.6 16c0 1.891 0.372 3.764 1.096 5.511s1.784 3.334 3.122 4.672c1.337 1.337 2.925 2.398 4.672 3.121s3.62 1.096 5.511 1.096c1.891 0 3.764-0.372 5.511-1.096s3.334-1.784 4.672-3.121c1.337-1.337 2.398-2.925 3.121-4.672s1.096-3.62 1.096-5.511c0-3.819-1.517-7.482-4.218-10.182s-6.363-4.218-10.182-4.218c-3.819 0-7.482 1.517-10.182 4.218s-4.218 6.363-4.218 10.182z"></path>
        </symbol>
        <symbol id="icon-error" viewBox="0 0 32 32">
            <path fill="none" stroke="#e93f36" style="stroke: var(--color2, #e93f36)" stroke-linejoin="round" stroke-linecap="round" stroke-miterlimit="4" stroke-width="2.9091" d="M12.768 12.768l6.465 6.465M19.232 12.768l-6.465 6.465M1.455 16c0 1.91 0.376 3.802 1.107 5.566s1.802 3.368 3.153 4.719 2.954 2.422 4.719 3.153c1.765 0.731 3.656 1.107 5.566 1.107s3.802-0.376 5.566-1.107c1.765-0.731 3.368-1.802 4.719-3.153s2.422-2.954 3.153-4.719c0.731-1.765 1.107-3.656 1.107-5.566s-0.376-3.802-1.107-5.566c-0.731-1.765-1.802-3.368-3.153-4.719s-2.954-2.422-4.719-3.153c-1.765-0.731-3.656-1.107-5.566-1.107s-3.802 0.376-5.566 1.107c-1.765 0.731-3.368 1.802-4.719 3.153s-2.422 2.954-3.153 4.719c-0.731 1.765-1.107 3.656-1.107 5.566z"></path>
        </symbol>
        <symbol id="icon-success" viewBox="0 0 32 32">
            <path fill="none" stroke="#69c04c" style="stroke: var(--color3, #69c04c)" stroke-linejoin="round" stroke-linecap="round" stroke-miterlimit="4" stroke-width="2.9091" d="M11.152 16l3.232 3.232 6.465-6.465M1.455 16c0 1.91 0.376 3.802 1.107 5.566s1.802 3.368 3.153 4.719 2.954 2.422 4.719 3.153c1.765 0.731 3.656 1.107 5.566 1.107s3.802-0.376 5.566-1.107c1.765-0.731 3.368-1.802 4.719-3.153s2.422-2.954 3.153-4.719c0.731-1.765 1.107-3.656 1.107-5.566s-0.376-3.802-1.107-5.566c-0.731-1.765-1.802-3.368-3.153-4.719s-2.954-2.422-4.719-3.153c-1.765-0.731-3.656-1.107-5.566-1.107s-3.802 0.376-5.566 1.107c-1.765 0.731-3.368 1.802-4.719 3.153s-2.422 2.954-3.153 4.719c-0.731 1.765-1.107 3.656-1.107 5.566z"></path>
        </symbol>
        <symbol id="icon-eye-on" viewBox="0 0 32 32">
            <path fill="none" stroke="#595959" style="stroke: var(--color4, #595959)" stroke-linejoin="round" stroke-linecap="round" stroke-miterlimit="4" stroke-width="2.6667" d="M1.333 16c0 0 5.333-10.667 14.667-10.667s14.667 10.667 14.667 10.667c0 0-5.333 10.667-14.667 10.667s-14.667-10.667-14.667-10.667z"></path>
            <path fill="none" stroke="#595959" style="stroke: var(--color4, #595959)" stroke-linejoin="round" stroke-linecap="round" stroke-miterlimit="4" stroke-width="2.6667" d="M16 20c2.209 0 4-1.791 4-4s-1.791-4-4-4c-2.209 0-4 1.791-4 4s1.791 4 4 4z"></path>
        </symbol>
        <symbol id="icon-eye-off" viewBox="0 0 32 32">
            <path fill="#595959" style="fill: var(--color4, #595959)" d="M27 28c-0.131 0-0.261-0.026-0.383-0.076s-0.231-0.124-0.324-0.217l-22-22c-0.18-0.189-0.278-0.441-0.275-0.702s0.108-0.51 0.293-0.694c0.184-0.184 0.434-0.289 0.694-0.293s0.513 0.095 0.702 0.275l22 22c0.14 0.14 0.235 0.318 0.273 0.512s0.019 0.395-0.057 0.577c-0.076 0.183-0.204 0.339-0.368 0.449s-0.358 0.169-0.555 0.169zM15.979 24c-2.593 0-5.094-0.768-7.432-2.281-2.129-1.375-4.046-3.344-5.544-5.687v-0.005c1.246-1.786 2.611-3.296 4.077-4.513 0.013-0.011 0.024-0.025 0.032-0.040s0.012-0.032 0.013-0.050c0.001-0.017-0.002-0.035-0.008-0.051s-0.016-0.031-0.028-0.043l-1.245-1.243c-0.022-0.022-0.052-0.035-0.083-0.037s-0.062 0.009-0.086 0.029c-1.558 1.313-3.003 2.922-4.317 4.808-0.226 0.325-0.351 0.709-0.358 1.105s0.103 0.784 0.318 1.117c1.651 2.583 3.775 4.759 6.143 6.291 2.666 1.727 5.534 2.602 8.519 2.602 1.611-0.005 3.211-0.271 4.737-0.786 0.020-0.007 0.038-0.019 0.053-0.034s0.024-0.035 0.029-0.056c0.005-0.021 0.004-0.042-0.001-0.063s-0.017-0.039-0.032-0.054l-1.349-1.349c-0.031-0.030-0.069-0.052-0.111-0.063s-0.086-0.011-0.128 0c-1.045 0.269-2.119 0.405-3.197 0.404zM30.677 14.912c-1.654-2.557-3.799-4.73-6.204-6.283-2.661-1.72-5.598-2.629-8.494-2.629-1.594 0.003-3.176 0.274-4.681 0.802-0.020 0.007-0.038 0.019-0.052 0.035s-0.024 0.035-0.029 0.056c-0.005 0.021-0.004 0.042 0.002 0.063s0.017 0.039 0.032 0.054l1.347 1.347c0.031 0.031 0.070 0.053 0.113 0.064s0.087 0.011 0.13-0.001c1.023-0.277 2.078-0.417 3.138-0.418 2.543 0 5.036 0.777 7.409 2.313 2.169 1.4 4.109 3.368 5.61 5.688 0.001 0.001 0.002 0.003 0.002 0.005s-0.001 0.004-0.002 0.005c-1.090 1.716-2.442 3.249-4.008 4.546-0.013 0.011-0.024 0.025-0.032 0.040s-0.012 0.033-0.013 0.050c-0.001 0.017 0.002 0.035 0.008 0.051s0.016 0.031 0.028 0.043l1.244 1.243c0.022 0.022 0.052 0.035 0.083 0.037s0.062-0.009 0.086-0.029c1.671-1.407 3.118-3.061 4.29-4.905 0.207-0.325 0.317-0.703 0.316-1.088s-0.113-0.762-0.322-1.086z"></path>
            <path fill="#595959" style="fill: var(--color4, #595959)" d="M16 10c-0.449-0-0.897 0.050-1.336 0.15-0.022 0.005-0.043 0.015-0.059 0.030s-0.029 0.035-0.035 0.057-0.007 0.045-0.001 0.067c0.006 0.022 0.017 0.042 0.033 0.058l7.037 7.035c0.016 0.016 0.036 0.027 0.058 0.033s0.045 0.005 0.067-0.001c0.022-0.007 0.041-0.019 0.057-0.035s0.026-0.037 0.030-0.059c0.2-0.879 0.2-1.791-0.001-2.67s-0.597-1.701-1.159-2.405c-0.562-0.705-1.275-1.273-2.088-1.664s-1.702-0.594-2.603-0.594zM10.361 14.604c-0.016-0.016-0.036-0.027-0.058-0.033s-0.045-0.005-0.067 0.001c-0.022 0.006-0.041 0.019-0.057 0.035s-0.026 0.037-0.030 0.059c-0.227 0.99-0.198 2.022 0.083 2.998s0.805 1.865 1.523 2.583c0.718 0.718 1.607 1.243 2.583 1.523s2.008 0.309 2.998 0.083c0.022-0.005 0.043-0.015 0.059-0.030s0.029-0.035 0.035-0.057c0.006-0.022 0.007-0.045 0.001-0.067s-0.017-0.042-0.033-0.058l-7.039-7.039z"></path>
        </symbol>
         <symbol id="icon-search" viewBox="0 0 32 32">
            <path d="M31.008 27.231l-7.58-6.447c-0.784-0.705-1.622-1.029-2.299-0.998 1.789-2.096 2.87-4.815 2.87-7.787 0-6.627-5.373-12-12-12s-12 5.373-12 12 5.373 12 12 12c2.972 0 5.691-1.081 7.787-2.87-0.031 0.677 0.293 1.515 0.998 2.299l6.447 7.58c1.104 1.226 2.907 1.33 4.007 0.23s0.997-2.903-0.23-4.007zM12 20c-4.418 0-8-3.582-8-8s3.582-8 8-8 8 3.582 8 8-3.582 8-8 8z"></path>
        </symbol>
    </defs>
</svg>
